# xmcd CD database file generated by OrangeCD 5.0
#
# Track frame offsets:
#	150
#	13170
#	26055
#	38470
#	53030
#	68100
#	81112
#	91335
#	110040
#	128672
#
# Disc length: 1916 seconds
#
# Revision: 4
# Processed by: cddbd v1.4PL0 Copyright (c) Steve Scherf et al.
# Submitted via: OrangeCD 5.0
#
DISCID=79077a0a
DTITLE=Alan Jackson - Honky Tonk Christmas
DYEAR=1993
DGENRE=Christmas
TTITLE0=Honky Tonk Christmas
TTITLE1=The Angels Cried (duet with Alison Krauss)
TTITLE2=If We Make It Through December
TTITLE3=If You Don't Wanna See Santa Claus
TTITLE4=I Only Want You For Christmas
TTITLE5=Merry Christmas To Me
TTITLE6=A Holly Jolly Christmas
TTITLE7=There's a New Kid In Town (duet with Keith Whitley)
TTITLE8=Santa's Gonna Come In a Pickup Truck (duet with the Chipmunks)
TTITLE9=Please Daddy (Don't Get Drunk This Christmas)
EXTD=LABEL =Arista Records, Inc.\nID =75517456752\nUPC =755174-567520\nCOPYR
EXTD=IGHT =1993
EXTT0=
EXTT1=
EXTT2=
EXTT3=
EXTT4=
EXTT5=
EXTT6=
EXTT7=
EXTT8=
EXTT9=
PLAYORDER=
